<svg id="visual" viewBox="0 0 1700 1000" width="1500" height="900" xmlns="http://www.w3.org/2000/svg" xmlns:xlink="http://www.w3.org/1999/xlink" version="1.1"><rect x="0" y="0" width="1700" height="1000" fill="#001220"></rect><path d="M0 866L25.8 860.8C51.7 855.7 103.3 845.3 154.8 844.8C206.3 844.3 257.7 853.7 309.2 857.7C360.7 861.7 412.3 860.3 463.8 859.8C515.3 859.3 566.7 859.7 618.2 857.2C669.7 854.7 721.3 849.3 772.8 850C824.3 850.7 875.7 857.3 927.2 859.5C978.7 861.7 1030.3 859.3 1081.8 854.7C1133.3 850 1184.7 843 1236.2 838.5C1287.7 834 1339.3 832 1390.8 839.2C1442.3 846.3 1493.7 862.7 1545.2 867C1596.7 871.3 1648.3 863.7 1674.2 859.8L1700 856L1700 1001L1674.2 1001C1648.3 1001 1596.7 1001 1545.2 1001C1493.7 1001 1442.3 1001 1390.8 1001C1339.3 1001 1287.7 1001 1236.2 1001C1184.7 1001 1133.3 1001 1081.8 1001C1030.3 1001 978.7 1001 927.2 1001C875.7 1001 824.3 1001 772.8 1001C721.3 1001 669.7 1001 618.2 1001C566.7 1001 515.3 1001 463.8 1001C412.3 1001 360.7 1001 309.2 1001C257.7 1001 206.3 1001 154.8 1001C103.3 1001 51.7 1001 25.8 1001L0 1001Z" fill="#a469fa"></path><path d="M0 885L25.8 885.2C51.7 885.3 103.3 885.7 154.8 884.2C206.3 882.7 257.7 879.3 309.2 875.3C360.7 871.3 412.3 866.7 463.8 867.7C515.3 868.7 566.7 875.3 618.2 875.8C669.7 876.3 721.3 870.7 772.8 870.3C824.3 870 875.7 875 927.2 872.7C978.7 870.3 1030.3 860.7 1081.8 858.3C1133.3 856 1184.7 861 1236.2 861.3C1287.7 861.7 1339.3 857.3 1390.8 863C1442.3 868.7 1493.7 884.3 1545.2 885C1596.7 885.7 1648.3 871.3 1674.2 864.2L1700 857L1700 1001L1674.2 1001C1648.3 1001 1596.7 1001 1545.2 1001C1493.7 1001 1442.3 1001 1390.8 1001C1339.3 1001 1287.7 1001 1236.2 1001C1184.7 1001 1133.3 1001 1081.8 1001C1030.3 1001 978.7 1001 927.2 1001C875.7 1001 824.3 1001 772.8 1001C721.3 1001 669.7 1001 618.2 1001C566.7 1001 515.3 1001 463.8 1001C412.3 1001 360.7 1001 309.2 1001C257.7 1001 206.3 1001 154.8 1001C103.3 1001 51.7 1001 25.8 1001L0 1001Z" fill="#9759fb"></path><path d="M0 916L25.8 915.3C51.7 914.7 103.3 913.3 154.8 912.3C206.3 911.3 257.7 910.7 309.2 906.7C360.7 902.7 412.3 895.3 463.8 893.5C515.3 891.7 566.7 895.3 618.2 894.2C669.7 893 721.3 887 772.8 887.8C824.3 888.7 875.7 896.3 927.2 900.5C978.7 904.7 1030.3 905.3 1081.8 906C1133.3 906.7 1184.7 907.3 1236.2 909C1287.7 910.7 1339.3 913.3 1390.8 914.5C1442.3 915.7 1493.7 915.3 1545.2 913C1596.7 910.7 1648.3 906.3 1674.2 904.2L1700 902L1700 1001L1674.2 1001C1648.3 1001 1596.7 1001 1545.2 1001C1493.7 1001 1442.3 1001 1390.8 1001C1339.3 1001 1287.7 1001 1236.2 1001C1184.7 1001 1133.3 1001 1081.8 1001C1030.3 1001 978.7 1001 927.2 1001C875.7 1001 824.3 1001 772.8 1001C721.3 1001 669.7 1001 618.2 1001C566.7 1001 515.3 1001 463.8 1001C412.3 1001 360.7 1001 309.2 1001C257.7 1001 206.3 1001 154.8 1001C103.3 1001 51.7 1001 25.8 1001L0 1001Z" fill="#8949fc"></path><path d="M0 903L25.8 903.2C51.7 903.3 103.3 903.7 154.8 908.5C206.3 913.3 257.7 922.7 309.2 924C360.7 925.3 412.3 918.7 463.8 914.2C515.3 909.7 566.7 907.3 618.2 911.8C669.7 916.3 721.3 927.7 772.8 930.7C824.3 933.7 875.7 928.3 927.2 922.8C978.7 917.3 1030.3 911.7 1081.8 912.3C1133.3 913 1184.7 920 1236.2 922.7C1287.7 925.3 1339.3 923.7 1390.8 925.8C1442.3 928 1493.7 934 1545.2 930.5C1596.7 927 1648.3 914 1674.2 907.5L1700 901L1700 1001L1674.2 1001C1648.3 1001 1596.7 1001 1545.2 1001C1493.7 1001 1442.3 1001 1390.8 1001C1339.3 1001 1287.7 1001 1236.2 1001C1184.7 1001 1133.3 1001 1081.8 1001C1030.3 1001 978.7 1001 927.2 1001C875.7 1001 824.3 1001 772.8 1001C721.3 1001 669.7 1001 618.2 1001C566.7 1001 515.3 1001 463.8 1001C412.3 1001 360.7 1001 309.2 1001C257.7 1001 206.3 1001 154.8 1001C103.3 1001 51.7 1001 25.8 1001L0 1001Z" fill="#7837fd"></path><path d="M0 964L25.8 959.7C51.7 955.3 103.3 946.7 154.8 946.2C206.3 945.7 257.7 953.3 309.2 956.5C360.7 959.7 412.3 958.3 463.8 955.7C515.3 953 566.7 949 618.2 948.7C669.7 948.3 721.3 951.7 772.8 954.7C824.3 957.7 875.7 960.3 927.2 957C978.7 953.7 1030.3 944.3 1081.8 943.7C1133.3 943 1184.7 951 1236.2 953.3C1287.7 955.7 1339.3 952.3 1390.8 951.3C1442.3 950.3 1493.7 951.7 1545.2 951.8C1596.7 952 1648.3 951 1674.2 950.5L1700 950L1700 1001L1674.2 1001C1648.3 1001 1596.7 1001 1545.2 1001C1493.7 1001 1442.3 1001 1390.8 1001C1339.3 1001 1287.7 1001 1236.2 1001C1184.7 1001 1133.3 1001 1081.8 1001C1030.3 1001 978.7 1001 927.2 1001C875.7 1001 824.3 1001 772.8 1001C721.3 1001 669.7 1001 618.2 1001C566.7 1001 515.3 1001 463.8 1001C412.3 1001 360.7 1001 309.2 1001C257.7 1001 206.3 1001 154.8 1001C103.3 1001 51.7 1001 25.8 1001L0 1001Z" fill="#6423fe"></path><path d="M0 956L25.8 960.7C51.7 965.3 103.3 974.7 154.8 976.5C206.3 978.3 257.7 972.7 309.2 969.7C360.7 966.7 412.3 966.3 463.8 966C515.3 965.7 566.7 965.3 618.2 963.3C669.7 961.3 721.3 957.7 772.8 958.3C824.3 959 875.7 964 927.2 964.3C978.7 964.7 1030.3 960.3 1081.8 960.3C1133.3 960.3 1184.7 964.7 1236.2 965.2C1287.7 965.7 1339.3 962.3 1390.8 961.5C1442.3 960.7 1493.7 962.3 1545.2 966.7C1596.7 971 1648.3 978 1674.2 981.5L1700 985L1700 1001L1674.2 1001C1648.3 1001 1596.7 1001 1545.2 1001C1493.7 1001 1442.3 1001 1390.8 1001C1339.3 1001 1287.7 1001 1236.2 1001C1184.7 1001 1133.3 1001 1081.8 1001C1030.3 1001 978.7 1001 927.2 1001C875.7 1001 824.3 1001 772.8 1001C721.3 1001 669.7 1001 618.2 1001C566.7 1001 515.3 1001 463.8 1001C412.3 1001 360.7 1001 309.2 1001C257.7 1001 206.3 1001 154.8 1001C103.3 1001 51.7 1001 25.8 1001L0 1001Z" fill="#4a00ff"></path></svg>