<svg id="visual" viewBox="0 0 900 500" width="1600" height="900" xmlns="http://www.w3.org/2000/svg" xmlns:xlink="http://www.w3.org/1999/xlink" version="1.1"><rect x="0" y="0" width="900" height="500" fill="#001220"></rect><path d="M0 399L13.7 395.2C27.3 391.3 54.7 383.7 82 383.3C109.3 383 136.7 390 163.8 393C191 396 218 395 245.2 394.5C272.3 394 299.7 394 327 392.2C354.3 390.3 381.7 386.7 409 387.3C436.3 388 463.7 393 491 394.5C518.3 396 545.7 394 573 390.5C600.3 387 627.7 382 654.8 378.8C682 375.7 709 374.3 736.2 379.7C763.3 385 790.7 397 818 400.2C845.3 403.3 872.7 397.7 886.3 394.8L900 392L900 501L886.3 501C872.7 501 845.3 501 818 501C790.7 501 763.3 501 736.2 501C709 501 682 501 654.8 501C627.7 501 600.3 501 573 501C545.7 501 518.3 501 491 501C463.7 501 436.3 501 409 501C381.7 501 354.3 501 327 501C299.7 501 272.3 501 245.2 501C218 501 191 501 163.8 501C136.7 501 109.3 501 82 501C54.7 501 27.3 501 13.7 501L0 501Z" fill="#a469fa"></path><path d="M0 413L13.7 413.2C27.3 413.3 54.7 413.7 82 412.7C109.3 411.7 136.7 409.3 163.8 406.5C191 403.7 218 400.3 245.2 401C272.3 401.7 299.7 406.3 327 406.7C354.3 407 381.7 403 409 402.8C436.3 402.7 463.7 406.3 491 404.5C518.3 402.7 545.7 395.3 573 393.5C600.3 391.7 627.7 395.3 654.8 395.5C682 395.7 709 392.3 736.2 396.7C763.3 401 790.7 413 818 413.7C845.3 414.3 872.7 403.7 886.3 398.3L900 393L900 501L886.3 501C872.7 501 845.3 501 818 501C790.7 501 763.3 501 736.2 501C709 501 682 501 654.8 501C627.7 501 600.3 501 573 501C545.7 501 518.3 501 491 501C463.7 501 436.3 501 409 501C381.7 501 354.3 501 327 501C299.7 501 272.3 501 245.2 501C218 501 191 501 163.8 501C136.7 501 109.3 501 82 501C54.7 501 27.3 501 13.7 501L0 501Z" fill="#9759fb"></path><path d="M0 437L13.7 436.5C27.3 436 54.7 435 82 434.2C109.3 433.3 136.7 432.7 163.8 429.7C191 426.7 218 421.3 245.2 420C272.3 418.7 299.7 421.3 327 420.3C354.3 419.3 381.7 414.7 409 415.3C436.3 416 463.7 422 491 425.2C518.3 428.3 545.7 428.7 573 429.2C600.3 429.7 627.7 430.3 654.8 431.7C682 433 709 435 736.2 435.8C763.3 436.7 790.7 436.3 818 434.5C845.3 432.7 872.7 429.3 886.3 427.7L900 426L900 501L886.3 501C872.7 501 845.3 501 818 501C790.7 501 763.3 501 736.2 501C709 501 682 501 654.8 501C627.7 501 600.3 501 573 501C545.7 501 518.3 501 491 501C463.7 501 436.3 501 409 501C381.7 501 354.3 501 327 501C299.7 501 272.3 501 245.2 501C218 501 191 501 163.8 501C136.7 501 109.3 501 82 501C54.7 501 27.3 501 13.7 501L0 501Z" fill="#8949fc"></path><path d="M0 427L13.7 427.2C27.3 427.3 54.7 427.7 82 431.3C109.3 435 136.7 442 163.8 443C191 444 218 439 245.2 435.5C272.3 432 299.7 430 327 433.3C354.3 436.7 381.7 445.3 409 447.7C436.3 450 463.7 446 491 441.8C518.3 437.7 545.7 433.3 573 433.8C600.3 434.3 627.7 439.7 654.8 441.7C682 443.7 709 442.3 736.2 444C763.3 445.7 790.7 450.3 818 447.8C845.3 445.3 872.7 435.7 886.3 430.8L900 426L900 501L886.3 501C872.7 501 845.3 501 818 501C790.7 501 763.3 501 736.2 501C709 501 682 501 654.8 501C627.7 501 600.3 501 573 501C545.7 501 518.3 501 491 501C463.7 501 436.3 501 409 501C381.7 501 354.3 501 327 501C299.7 501 272.3 501 245.2 501C218 501 191 501 163.8 501C136.7 501 109.3 501 82 501C54.7 501 27.3 501 13.7 501L0 501Z" fill="#7837fd"></path><path d="M0 473L13.7 469.7C27.3 466.3 54.7 459.7 82 459.3C109.3 459 136.7 465 163.8 467.5C191 470 218 469 245.2 466.8C272.3 464.7 299.7 461.3 327 461C354.3 460.7 381.7 463.3 409 465.7C436.3 468 463.7 470 491 467.5C518.3 465 545.7 458 573 457.5C600.3 457 627.7 463 654.8 464.7C682 466.3 709 463.7 736.2 462.8C763.3 462 790.7 463 818 463.3C845.3 463.7 872.7 463.3 886.3 463.2L900 463L900 501L886.3 501C872.7 501 845.3 501 818 501C790.7 501 763.3 501 736.2 501C709 501 682 501 654.8 501C627.7 501 600.3 501 573 501C545.7 501 518.3 501 491 501C463.7 501 436.3 501 409 501C381.7 501 354.3 501 327 501C299.7 501 272.3 501 245.2 501C218 501 191 501 163.8 501C136.7 501 109.3 501 82 501C54.7 501 27.3 501 13.7 501L0 501Z" fill="#6423fe"></path><path d="M0 466L13.7 469.7C27.3 473.3 54.7 480.7 82 482.2C109.3 483.7 136.7 479.3 163.8 477C191 474.7 218 474.3 245.2 474.2C272.3 474 299.7 474 327 472.5C354.3 471 381.7 468 409 468.3C436.3 468.7 463.7 472.3 491 472.5C518.3 472.7 545.7 469.3 573 469.5C600.3 469.7 627.7 473.3 654.8 473.8C682 474.3 709 471.7 736.2 471C763.3 470.3 790.7 471.7 818 474.8C845.3 478 872.7 483 886.3 485.5L900 488L900 501L886.3 501C872.7 501 845.3 501 818 501C790.7 501 763.3 501 736.2 501C709 501 682 501 654.8 501C627.7 501 600.3 501 573 501C545.7 501 518.3 501 491 501C463.7 501 436.3 501 409 501C381.7 501 354.3 501 327 501C299.7 501 272.3 501 245.2 501C218 501 191 501 163.8 501C136.7 501 109.3 501 82 501C54.7 501 27.3 501 13.7 501L0 501Z" fill="#4a00ff"></path></svg>