<svg id="visual" viewBox="0 0 1920 1080" width="1900" height="1100" xmlns="http://www.w3.org/2000/svg" xmlns:xlink="http://www.w3.org/1999/xlink" version="1.1"><rect x="0" y="0" width="1920" height="1080" fill="#001220"></rect><path d="M0 662L45.7 673.2C91.3 684.3 182.7 706.7 274.2 718.5C365.7 730.3 457.3 731.7 548.8 725.8C640.3 720 731.7 707 823 693.3C914.3 679.7 1005.7 665.3 1097 668C1188.3 670.7 1279.7 690.3 1371.2 710C1462.7 729.7 1554.3 749.3 1645.8 753.5C1737.3 757.7 1828.7 746.3 1874.3 740.7L1920 735L1920 1081L1874.3 1081C1828.7 1081 1737.3 1081 1645.8 1081C1554.3 1081 1462.7 1081 1371.2 1081C1279.7 1081 1188.3 1081 1097 1081C1005.7 1081 914.3 1081 823 1081C731.7 1081 640.3 1081 548.8 1081C457.3 1081 365.7 1081 274.2 1081C182.7 1081 91.3 1081 45.7 1081L0 1081Z" fill="#a469fa"></path><path d="M0 862L45.7 852.7C91.3 843.3 182.7 824.7 274.2 822.3C365.7 820 457.3 834 548.8 828.8C640.3 823.7 731.7 799.3 823 796.7C914.3 794 1005.7 813 1097 807.2C1188.3 801.3 1279.7 770.7 1371.2 751.5C1462.7 732.3 1554.3 724.7 1645.8 741C1737.3 757.3 1828.7 797.7 1874.3 817.8L1920 838L1920 1081L1874.3 1081C1828.7 1081 1737.3 1081 1645.8 1081C1554.3 1081 1462.7 1081 1371.2 1081C1279.7 1081 1188.3 1081 1097 1081C1005.7 1081 914.3 1081 823 1081C731.7 1081 640.3 1081 548.8 1081C457.3 1081 365.7 1081 274.2 1081C182.7 1081 91.3 1081 45.7 1081L0 1081Z" fill="#9455fb"></path><path d="M0 863L45.7 867.2C91.3 871.3 182.7 879.7 274.2 879.3C365.7 879 457.3 870 548.8 856C640.3 842 731.7 823 823 820.2C914.3 817.3 1005.7 830.7 1097 843.5C1188.3 856.3 1279.7 868.7 1371.2 881.3C1462.7 894 1554.3 907 1645.8 907C1737.3 907 1828.7 894 1874.3 887.5L1920 881L1920 1081L1874.3 1081C1828.7 1081 1737.3 1081 1645.8 1081C1554.3 1081 1462.7 1081 1371.2 1081C1279.7 1081 1188.3 1081 1097 1081C1005.7 1081 914.3 1081 823 1081C731.7 1081 640.3 1081 548.8 1081C457.3 1081 365.7 1081 274.2 1081C182.7 1081 91.3 1081 45.7 1081L0 1081Z" fill="#8140fc"></path><path d="M0 876L45.7 885.2C91.3 894.3 182.7 912.7 274.2 926.7C365.7 940.7 457.3 950.3 548.8 948.2C640.3 946 731.7 932 823 923.5C914.3 915 1005.7 912 1097 916.7C1188.3 921.3 1279.7 933.7 1371.2 939.2C1462.7 944.7 1554.3 943.3 1645.8 947.7C1737.3 952 1828.7 962 1874.3 967L1920 972L1920 1081L1874.3 1081C1828.7 1081 1737.3 1081 1645.8 1081C1554.3 1081 1462.7 1081 1371.2 1081C1279.7 1081 1188.3 1081 1097 1081C1005.7 1081 914.3 1081 823 1081C731.7 1081 640.3 1081 548.8 1081C457.3 1081 365.7 1081 274.2 1081C182.7 1081 91.3 1081 45.7 1081L0 1081Z" fill="#6a28fd"></path><path d="M0 999L45.7 991C91.3 983 182.7 967 274.2 969.3C365.7 971.7 457.3 992.3 548.8 1002.8C640.3 1013.3 731.7 1013.7 823 1016.7C914.3 1019.7 1005.7 1025.3 1097 1025.5C1188.3 1025.7 1279.7 1020.3 1371.2 1006.3C1462.7 992.3 1554.3 969.7 1645.8 967C1737.3 964.3 1828.7 981.7 1874.3 990.3L1920 999L1920 1081L1874.3 1081C1828.7 1081 1737.3 1081 1645.8 1081C1554.3 1081 1462.7 1081 1371.2 1081C1279.7 1081 1188.3 1081 1097 1081C1005.7 1081 914.3 1081 823 1081C731.7 1081 640.3 1081 548.8 1081C457.3 1081 365.7 1081 274.2 1081C182.7 1081 91.3 1081 45.7 1081L0 1081Z" fill="#4a00ff"></path></svg>